<?xml version="1.0" encoding="utf-8"?>
<!-- Generator: Adobe Illustrator 26.0.3, SVG Export Plug-In . SVG Version: 6.00 Build 0)  -->
<svg version="1.1" id="Layer_1" xmlns="http://www.w3.org/2000/svg" xmlns:xlink="http://www.w3.org/1999/xlink" x="0px" y="0px"
	 viewBox="0 0 221.1 40.7" style="enable-background:new 0 0 221.1 40.7;" xml:space="preserve">
<style type="text/css">
	.st0{fill:#FFFFFF;}
</style>
<g id="T">
	<polygon class="st0" points="138,0.3 138,2.5 142.2,2.5 142.2,16.4 144.7,16.4 144.7,2.5 148.9,2.5 148.9,0.3 	"/>
</g>
<g id="U">
	<path class="st0" d="M173,0.3v9.4c0,2.4,0.1,3.1,0.5,4c0.9,1.9,2.9,3,5.6,3s4.7-1.1,5.6-3c0.4-0.9,0.5-1.6,0.5-4V0.3h-2.5v9.4
		c0.1,1,0,1.9-0.3,2.9c-0.5,1.3-1.9,2.1-3.3,2c-1.3,0.1-2.6-0.5-3.2-1.7c-0.3-0.7-0.4-1.2-0.4-3.2V0.3H173z"/>
</g>
<g id="C">
	<path class="st0" d="M203.2,5c-0.3-3.2-2.3-5-5.5-5c-1.6,0-3.2,0.6-4.4,1.7c-1.6,1.5-2.5,3.8-2.5,6.7c0,5,2.7,8.3,7,8.3
		c3.4,0,5.4-2.1,5.6-5.9l-2.3-0.2c-0.2,2.6-1.4,3.9-3.5,3.9c-2.6,0-4.3-2.4-4.3-6.1s1.6-6.2,4.2-6.2c1.8,0,2.9,1,3.3,3h0.2L203.2,5z
		"/>
</g>
<g id="K">
	<polygon class="st0" points="217.7,0.3 212.4,6.8 211.5,6.8 211.5,0.3 209,0.3 209,16.4 211.5,16.4 211.5,8.9 212.2,8.9 
		217.9,16.4 221.1,16.4 214.3,7.8 220.6,0.3 	"/>
</g>
<g id="R">
	<path class="st0" d="M159,2.5c2.1,0,2.7,0.1,3.4,0.4c0.8,0.4,1.3,1.3,1.2,2.2c0.1,1.1-0.6,2.1-1.6,2.4c-0.9,0.3-1.9,0.4-2.9,0.3
		H158V2.5H159z M155.5,16.4h2.5V9.9h2.5l3.6,6.5h2.9l-4-6.9c1.9-0.6,3.1-2.4,3.1-4.4c0.1-1.7-0.9-3.3-2.4-4.1
		c-1.1-0.6-2.1-0.7-4.8-0.7c-1.2-0.1-2.3,0-3.4,0.2L155.5,16.4z"/>
</g>
<g id="I">
	<rect x="38.4" y="0.3" class="st0" width="2.5" height="16.1"/>
</g>
<g id="L">
	<polygon class="st0" points="74.8,0.3 74.8,16.4 84.2,16.4 84.3,14.2 77.4,14.2 77.4,0.3 	"/>
</g>
<g id="E">
	<polygon class="st0" points="93.7,7 93.7,2.5 100.7,2.5 100.5,0.3 91.2,0.3 91.2,16.4 100.7,16.4 100.9,14.2 93.7,14.2 93.7,9.1 
		98,9.1 98,7 	"/>
</g>
<g id="A">
	<path class="st0" d="M26.7,10.5h-4.6l2.3-7.2L26.7,10.5z M23.3,0.3l-5.5,16.1h2.5l1.2-3.8h5.9l1.2,3.8h2.6L25.7,0.3H23.3z"/>
</g>
<g id="M">
	<polygon class="st0" points="50.4,0.3 49.5,16.4 51.8,16.4 52.6,3.7 57.3,16.4 58.6,16.4 63.4,3.7 64.2,16.4 66.4,16.4 65.5,0.3 
		62.3,0.3 58,11.7 53.7,0.3 	"/>
</g>
<g id="R-2">
	<path class="st0" d="M111.4,2.5c2.2,0,2.7,0.1,3.4,0.4c0.8,0.4,1.3,1.3,1.2,2.2c0.1,1.1-0.6,2.1-1.6,2.4c-0.9,0.3-1.9,0.4-2.9,0.3
		h-1.1V2.5H111.4z M108,16.4h2.5V9.9h2.5l3.6,6.5h2.9l-4-6.9c1.9-0.6,3.1-2.4,3.1-4.4c0.1-1.7-0.9-3.3-2.4-4.1
		c-1.1-0.6-2.1-0.7-4.8-0.7c-1.1-0.1-2.3,0-3.4,0.2V16.4z"/>
</g>
<g id="D">
	<path class="st0" d="M2.5,14.2V2.4h0.7c2.6,0,3.3,0.1,4.3,0.7C8.9,4,9.7,5.9,9.7,8.3S9,12.6,7.6,13.5c-0.9,0.6-1.7,0.8-3.8,0.8H2.5
		z M0,0.5v15.8h2.9c3.3,0,4.4-0.2,5.8-0.9c2.2-1.2,3.5-3.9,3.5-7.1s-1.4-6-3.7-7.2C7.4,0.5,6,0.3,3.3,0.3C2.2,0.3,1.1,0.3,0,0.5z"/>
</g>
<g id="a-2">
	<path class="st0" d="M172.4,36.7c0,0.7-0.1,1.3-0.3,1.9c-0.4,0.6-1.1,1-1.9,1c-0.8,0.1-1.6-0.5-1.7-1.4c0,0,0-0.1,0-0.1
		c0-1.2,1-1.8,3.9-2.3V36.7z M168.8,34.2c0.2-1,0.8-1.4,1.9-1.4c1.3,0,1.7,0.5,1.7,1.8v0.4c-1.1,0.1-2.2,0.4-3.2,0.8
		c-1.2,0.3-2,1.3-2,2.5c0,1.4,1.1,2.5,2.4,2.5c0.1,0,0.2,0,0.4,0c1,0.1,2-0.5,2.5-1.4c0,0.4,0.1,0.8,0.2,1.2h1.2
		c-0.2-0.7-0.3-1.5-0.2-2.2V35c0.1-0.6,0-1.3-0.2-1.9c-0.3-0.9-1.4-1.4-2.7-1.4c-1.9,0-3,0.9-3.2,2.5L168.8,34.2z"/>
</g>
<g id="c-2">
	<path class="st0" d="M163.7,34.7c-0.2-1.9-1.3-3-3.1-3c-2.2,0-3.6,1.7-3.6,4.5s1.4,4.5,3.6,4.5c1.9,0,3-1.1,3.1-3.2h-1.3
		c-0.1,1.4-0.7,2.1-1.9,2.1c-1.5,0-2.3-1.3-2.3-3.4s0.9-3.4,2.3-3.4c1.1,0,1.6,0.5,1.9,1.9H163.7z"/>
</g>
<g id="i_dot">
	<path class="st0" d="M152.5,28.3c-0.5,0-0.9,0.4-0.9,0.9c0,0,0,0,0,0.1c0,0.5,0.4,0.9,0.9,0.9c0,0,0,0,0,0c0.5,0,0.9-0.4,0.9-0.8
		c0,0,0,0,0-0.1C153.4,28.7,153,28.3,152.5,28.3C152.5,28.3,152.5,28.3,152.5,28.3z"/>
</g>
<g id="i-2">
	<rect x="151.8" y="31.9" class="st0" width="1.3" height="8.5"/>
</g>
<g id="r-3">
	<path class="st0" d="M143.9,31.9c0.1,1,0.2,2,0.1,2.9v5.6h1.3v-3.8c-0.1-0.8,0.1-1.7,0.4-2.5c0.2-0.7,0.9-1.2,1.6-1.3
		c0.4,0,0.8,0.1,1.2,0.3V32c-0.3-0.2-0.7-0.3-1-0.3c-0.9,0-1.6,0.6-2.2,2.1c0-0.2,0-0.4,0-0.5c0-0.4-0.1-0.9-0.2-1.3L143.9,31.9z"/>
</g>
<g id="e-2">
	<path class="st0" d="M134.3,35.4c0.2-1.7,1-2.7,2.3-2.7s2.1,0.9,2.2,2.7H134.3z M140.1,36.4c0-0.1,0-0.2,0-0.4
		c0-2.6-1.4-4.4-3.5-4.4s-3.6,1.8-3.6,4.6s1.5,4.4,3.7,4.4c1.4,0.1,2.8-0.8,3.2-2.2l-1.2-0.2c-0.3,0.8-1.1,1.4-2,1.3
		c-1.6,0-2.4-1.1-2.5-3.2L140.1,36.4z"/>
</g>
<g id="m-2">
	<path class="st0" d="M117.7,31.9c0.2,0.9,0.3,1.8,0.2,2.6v5.9h1.3v-5c0-0.6,0.1-1.2,0.3-1.7c0.4-0.6,1-1,1.7-0.9
		c0.6,0,1.2,0.3,1.5,0.8c0.2,0.3,0.2,0.5,0.2,1.8v5h1.3v-5c0-0.6,0.1-1.2,0.3-1.7c0.4-0.6,1-0.9,1.7-0.9c0.6-0.1,1.1,0.2,1.4,0.7
		c0.2,0.5,0.3,1.1,0.2,1.7v5.2h1.3v-5.2c0-1.6,0-1.9-0.3-2.5c-0.5-0.7-1.3-1.2-2.2-1.1c-1.1-0.1-2.1,0.5-2.6,1.5
		c-0.4-1-1.3-1.6-2.4-1.5c-1-0.1-2,0.5-2.5,1.4c0-0.4,0-0.8-0.2-1.2H117.7z"/>
</g>
<g id="A-3">
	<path class="st0" d="M111.6,36.1h-3.8l1.9-6L111.6,36.1z M109.1,28.4l-4.1,12.1h1.4l1.1-3.2h4.5l1.1,3.2h1.4l-4.1-12.1L109.1,28.4z
		"/>
</g>
<g id="h">
	<path class="st0" d="M86.7,28.4v12.1H88v-4.7c0-0.7,0.1-1.3,0.4-1.9c0.4-0.6,1-1,1.8-1c0.6,0,1.2,0.3,1.5,0.8
		c0.2,0.6,0.3,1.3,0.2,2v4.8h1.3v-4.9c0-1.7-0.1-2.2-0.4-2.8c-0.5-0.7-1.4-1.2-2.3-1.1c-1,0-1.9,0.5-2.5,1.3v-4.6H86.7z"/>
</g>
<g id="t-2">
	<path class="st0" d="M81.1,31.9v-2.5h-1.2l-0.1,2.5h-1.3v1h1.3l-0.1,4.3c0,1.1,0,1.2,0,1.4c-0.1,0.4,0,0.9,0.2,1.3
		c0.4,0.6,1.1,0.8,1.7,0.8c0.5,0,1-0.1,1.5-0.3v-1.1c-0.4,0.2-0.8,0.3-1.2,0.3c-0.3,0-0.6-0.1-0.8-0.4C81,38.8,81,38.4,81,38v-0.7
		l0.1-4.3h2v-1L81.1,31.9z"/>
</g>
<g id="r-4">
	<path class="st0" d="M71.1,31.9c0.1,1,0.2,2,0.2,2.9v5.6h1.3v-3.8c0-0.8,0.1-1.7,0.4-2.5c0.3-0.7,0.9-1.2,1.6-1.3
		c0.4,0,0.8,0.1,1.2,0.3V32c-0.3-0.2-0.7-0.3-1-0.3c-0.9,0-1.6,0.6-2.2,2.1c0-0.2,0-0.4,0-0.5c0-0.4-0.1-0.9-0.2-1.3L71.1,31.9z"/>
</g>
<g id="o">
	<path class="st0" d="M63.5,32.8c1.5,0,2.4,1.4,2.4,3.4s-1,3.4-2.4,3.4s-2.4-1.4-2.4-3.5S62.1,32.8,63.5,32.8z M63.5,31.7
		c-2.2,0-3.7,1.9-3.7,4.4s1.5,4.6,3.7,4.6c2.2,0,3.7-1.9,3.7-4.5S65.7,31.7,63.5,31.7z"/>
</g>
<g id="N">
	<polygon class="st0" points="47.2,28.5 47.2,40.5 48.5,40.5 48.5,30.5 54.2,40.5 55.7,40.5 55.7,28.5 54.4,28.5 54.4,38.5 
		48.7,28.5 	"/>
</g>
</svg>
