<svg xmlns="http://www.w3.org/2000/svg" width="44.764" height="39.808" viewBox="0 0 44.764 39.808">
  <path id="Icon_awesome-linkedin" data-name="Icon awesome-linkedin" d="M41.567,2.25H3.187A3.045,3.045,0,0,0,0,5.12V39.188a3.045,3.045,0,0,0,3.187,2.87H41.567a3.054,3.054,0,0,0,3.2-2.87V5.12A3.054,3.054,0,0,0,41.567,2.25ZM13.529,36.371H6.894v-19h6.645v19ZM10.212,14.779a3.654,3.654,0,0,1-3.847-3.421,3.654,3.654,0,0,1,3.847-3.421,3.66,3.66,0,0,1,3.847,3.421,3.648,3.648,0,0,1-3.847,3.421ZM38.4,36.371H31.765V27.13c0-2.2-.05-5.038-3.447-5.038-3.457,0-3.987,2.4-3.987,4.878v9.4H17.7v-19h6.365v2.595h.09A7.185,7.185,0,0,1,30.436,16.9c6.715,0,7.964,3.936,7.964,9.054Z" transform="translate(0 -2.25)" fill="#fff"/>
</svg>
