<?xml version="1.0" encoding="utf-8"?>
<!-- Generator: Adobe Illustrator 26.0.3, SVG Export Plug-In . SVG Version: 6.00 Build 0)  -->
<svg version="1.1" id="Layer_1" xmlns="http://www.w3.org/2000/svg" xmlns:xlink="http://www.w3.org/1999/xlink" x="0px" y="0px"
	 viewBox="0 0 539 165" style="enable-background:new 0 0 539 165;" xml:space="preserve">
<style type="text/css">
	.st0{fill:#FFFFFF;}
</style>
<rect width="539" height="165"/>
<polygon class="st0" points="509.5,135.5 509.5,107.5 450.5,107.5 509.5,48.5 489.5,28.5 430.5,87.5 430.5,28.5 402.5,28.5 
	402.5,135.5 "/>
<path class="st0" d="M67.5,26.5c25,0,39,15,39,37v3h-25v-2c0-11-5-17-15-17s-11,3-11,9s3,8,8,10l16,5c18,6,27,14,27,32s-16,34-38,34
	s-39-14-39-37v-3h24v2c0,11,6,17,16,17s12-3,12-10s-3-8-9-10l-17-5c-14-5-25-13-25-32S44.5,26.5,67.5,26.5z"/>
<path class="st0" d="M162.5,79.5l31,55h-28l-18-32l-17,33h-28l31-55l-29-52h29l16,30l16-30h27L162.5,79.5z"/>
<path class="st0" d="M228.5,26.5c25,0,39,15,39,37v3h-24v-2c0-11-5-17-15-17s-11,4-11,10s3,8,8,10l16,5c18,6,27,14,27,32
	s-16,34-38,34s-40-14-40-37v-4h24v2c0,11,6,17,16,17s12-3,12-10s-3-8-9-10l-16-5c-15-5-25-13-25-32S205.5,26.5,228.5,26.5z"/>
<path class="st0" d="M342.5,28.5l10,69h1l11-69h25l-20,106h-30l-10-68h-1l-10,68h-29l-20-106h27l11,69h1l10-69H342.5z"/>
<path class="st0" d="M380.5,134.5c-2.2,0-4-1.8-4-4s1.8-4,4-4s4,1.8,4,4S382.7,134.5,380.5,134.5z M380.5,127.5c-1.7,0-3,1.3-3,3
	s1.3,3,3,3s3-1.3,3-3S382.2,127.5,380.5,127.5z M381.5,132.5h-2v-4h2V132.5z M380.5,130.5L380.5,130.5z"/>
</svg>
