<svg xmlns="http://www.w3.org/2000/svg" width="120.05" height="113.438" viewBox="0 0 120.05 113.438">
  <path id="Icon_awesome-check-circle" data-name="Icon awesome-check-circle" d="M120.613,57.281C120.613,88.606,93.739,114,60.588,114S.563,88.606.563,57.281,27.437.563,60.588.563,120.613,25.956,120.613,57.281ZM53.645,87.313,98.179,45.232a3.519,3.519,0,0,0,0-5.175L92.7,34.882a4.034,4.034,0,0,0-5.477,0L50.906,69.2,33.949,53.178a4.034,4.034,0,0,0-5.477,0L23,58.353a3.519,3.519,0,0,0,0,5.175L48.168,87.313a4.034,4.034,0,0,0,5.477,0Z" transform="translate(-0.563 -0.563)" fill="#5affa8"/>
</svg>
