<?xml version="1.0" standalone="no"?>
<!DOCTYPE svg PUBLIC "-//W3C//DTD SVG 20010904//EN"
 "http://www.w3.org/TR/2001/REC-SVG-20010904/DTD/svg10.dtd">
<svg version="1.0" xmlns="http://www.w3.org/2000/svg"
 width="310.000000pt" height="310.000000pt" viewBox="0 0 310.000000 310.000000"
 preserveAspectRatio="xMidYMid meet">
<metadata>
Created by potrace 1.11, written by Peter Selinger 2001-2013
</metadata>
<g transform="translate(0.000000,310.000000) scale(0.100000,-0.100000)"
fill="#000000" stroke="none">
<path d="M0 1550 l0 -1550 433 4 c237 2 482 8 542 14 126 10 1020 3 990 -9
-11 -4 240 -8 558 -8 l577 -1 0 1550 0 1550 -437 -5 c-690 -8 -1797 -12 -1598
-5 106 3 -77 7 -442 8 l-623 2 0 -1550z m1645 1493 c90 -15 -21 -21 -410 -21
-345 0 -394 2 -355 13 49 14 689 21 765 8z m488 -59 c59 -3 107 -9 107 -13 0
-4 -15 -12 -33 -19 -40 -14 -1121 -9 -1272 6 l-90 9 110 3 c61 1 99 5 85 8
-20 5 -14 8 25 13 56 7 902 2 1068 -7z m-865 -61 c-65 -2 -171 -2 -235 0 -65
1 -12 3 117 3 129 0 182 -2 118 -3z m917 -22 c64 -13 18 -24 -98 -24 -351 1
-756 7 -722 12 27 4 0 8 -80 11 -66 3 101 7 370 7 270 1 508 -2 530 -6z m88
-8 c-7 -2 -19 -2 -25 0 -7 3 -2 5 12 5 14 0 19 -2 13 -5z m-39 -54 c-3 -5 -96
-8 -207 -7 -174 2 -187 3 -97 8 156 10 310 9 304 -1z m-791 -6 c-46 -2 -120
-2 -165 0 -46 1 -9 3 82 3 91 0 128 -2 83 -3z m124 1 c-3 -3 -12 -4 -19 -1 -8
3 -5 6 6 6 11 1 17 -2 13 -5z m-192 -24 c-5 -8 22 -10 92 -9 213 5 773 -2 773
-10 0 -18 -91 -21 -576 -21 -616 0 -845 7 -809 26 31 16 69 19 323 22 146 2
202 0 197 -8z m391 -57 c350 -12 154 -22 -300 -15 -237 4 -397 10 -356 13 116
9 436 10 656 2z m494 -48 c0 -12 -20 -15 -117 -15 -80 0 -113 -3 -103 -10 10
-7 -9 -10 -65 -12 -57 -2 -39 -4 65 -8 80 -3 -111 -6 -425 -7 -314 -1 -581 3
-595 7 -15 5 37 8 130 9 206 2 604 13 609 17 2 2 -207 4 -464 4 -424 0 -507 4
-430 23 11 3 329 5 708 6 604 1 687 -1 687 -14z m-500 -76 c227 -2 262 -4 170
-9 -63 -4 -266 -7 -450 -7 -321 0 -330 1 -225 13 61 6 135 10 165 8 30 -2 183
-4 340 -5z m442 -48 c9 -8 -874 -32 -1067 -30 -71 1 -115 4 -97 6 17 2 32 8
32 14 0 5 8 9 18 9 14 0 15 -2 2 -10 -12 -8 -11 -10 7 -10 41 0 14 29 -30 33
-23 2 221 1 543 -1 322 -3 588 -8 592 -11z m-17 -71 c-7 -12 -724 -12 -800 0
-29 4 132 8 378 9 283 1 426 -2 422 -9z m-330 -58 c269 -50 437 -132 577 -280
78 -83 127 -167 162 -277 26 -82 48 -195 37 -195 -3 0 -6 -75 -6 -168 -1 -141
-5 -181 -24 -256 -35 -134 -115 -298 -136 -278 -5 4 -5 1 -1 -6 11 -19 -146
-174 -168 -166 -10 4 -16 1 -16 -9 0 -17 -16 -27 -119 -76 -84 -41 -172 -68
-301 -93 -97 -19 -151 -21 -720 -25 -405 -3 -619 -8 -627 -15 -10 -8 -13 1
-13 44 l0 54 114 11 c125 11 177 30 210 76 21 28 21 39 24 750 1 397 6 724 11
727 14 8 -6 48 -33 65 -32 21 -229 34 -240 16 -14 -22 -26 -10 -26 27 0 95 49
101 710 97 427 -3 486 -5 585 -23z m240 18 c4 -6 -21 -10 -69 -10 -41 0 -78 5
-81 10 -4 6 21 10 69 10 41 0 78 -4 81 -10z m-1288 -526 c-3 -3 -12 -4 -19 -1
-8 3 -5 6 6 6 11 1 17 -2 13 -5z m3 -484 c0 -5 -12 -10 -27 -10 -22 0 -25 2
-13 10 20 13 40 13 40 0z m0 -235 c0 -12 -4 -14 -16 -7 -9 5 -26 7 -38 5 -17
-4 -18 -3 -6 6 23 16 60 13 60 -4z m-12 -102 c-10 -2 -26 -2 -35 0 -10 3 -2 5
17 5 19 0 27 -2 18 -5z m-25 -20 c-7 -2 -19 -2 -25 0 -7 3 -2 5 12 5 14 0 19
-2 13 -5z m25 -70 c-10 -2 -28 -2 -40 0 -13 2 -5 4 17 4 22 1 32 -1 23 -4z m0
-20 c-10 -2 -26 -2 -35 0 -10 3 -2 5 17 5 19 0 27 -2 18 -5z m10 -40 c-10 -2
-28 -2 -40 0 -13 2 -5 4 17 4 22 1 32 -1 23 -4z m-41 -129 c-3 -3 -12 -4 -19
-1 -8 3 -5 6 6 6 11 1 17 -2 13 -5z m33 2 c0 -3 -4 -8 -10 -11 -5 -3 -10 -1
-10 4 0 6 5 11 10 11 6 0 10 -2 10 -4z m1238 -233 c-10 -2 -26 -2 -35 0 -10 3
-2 5 17 5 19 0 27 -2 18 -5z m-130 -45 c10 -1 17 -14 10 -20 -4 -2 -528 -16
-892 -24 -192 -4 -306 -2 -303 3 4 6 129 13 284 17 406 9 574 17 608 27 23 7
220 5 293 -3z m8 -80 c4 -5 5 -10 3 -12 -2 -2 -202 -6 -444 -8 -242 -3 -402
-2 -355 2 80 6 77 6 -70 10 l-155 4 180 6 c247 9 832 7 841 -2z m89 -95 c-11
-3 -24 -9 -30 -14 -5 -5 -253 -8 -585 -7 -316 0 -560 3 -542 5 17 2 32 8 32
14 0 5 222 9 573 8 314 -1 563 -3 552 -6z m-20 -114 c32 -8 42 -14 33 -20 -16
-11 -528 -11 -863 -1 -188 5 -229 8 -165 13 l85 5 -90 3 c-73 3 -83 5 -55 12
54 13 1000 2 1055 -12z m-552 -66 c-7 -2 -19 -2 -25 0 -7 3 -2 5 12 5 14 0 19
-2 13 -5z m552 -33 l-60 -6 55 -5 c90 -9 -644 -10 -915 -1 -243 7 -246 7 -115
12 190 8 1108 8 1035 0z m-1027 -27 c-10 -2 -26 -2 -35 0 -10 3 -2 5 17 5 19
0 27 -2 18 -5z m49 1 c-3 -3 -12 -4 -19 -1 -8 3 -5 6 6 6 11 1 17 -2 13 -5z
m261 -21 c-98 -2 -258 -2 -355 0 -98 1 -18 2 177 2 195 0 275 -1 178 -2z m487
-23 c-144 -9 -656 -10 -700 -1 -24 5 128 8 375 8 228 0 375 -3 325 -7z m90
-30 c-75 -6 -72 -6 50 -8 88 -2 125 -5 115 -12 -22 -14 -1317 -13 -1325 1 -4
6 -1 10 6 8 8 -1 145 0 304 2 l290 3 -260 6 c-176 4 -72 6 320 6 319 0 544 -3
500 -6z"/>
<path d="M2228 2703 c7 -3 16 -2 19 1 4 3 -2 6 -13 5 -11 0 -14 -3 -6 -6z"/>
<path d="M1178 2334 c-11 -11 -10 -1392 1 -1398 5 -3 12 -23 16 -43 19 -104
65 -130 242 -139 138 -7 308 8 412 36 217 60 342 190 402 417 18 65 21 110 23
268 0 105 4 193 9 196 4 3 1 38 -8 78 -64 304 -255 498 -561 567 -75 17 -523
32 -536 18z m365 -61 c-34 -2 -93 -2 -130 0 -37 2 -9 3 62 3 72 0 102 -1 68
-3z m-105 -60 c-32 -2 -86 -2 -120 0 -35 2 -9 3 57 3 66 0 94 -1 63 -3z m395
-10 c46 -4 67 -10 67 -19 0 -12 -59 -14 -330 -14 -213 0 -330 4 -330 10 0 6
51 10 133 11 72 0 155 4 182 9 65 10 193 12 278 3z m-25 -90 c-98 -2 -258 -2
-355 0 -98 1 -18 2 177 2 195 0 275 -1 178 -2z m-138 -24 c-211 -11 -420 -10
-420 1 0 6 98 9 278 8 242 -1 260 -2 142 -9z m123 -16 c-13 -2 -33 -2 -45 0
-13 2 -3 4 22 4 25 0 35 -2 23 -4z m47 -21 l85 -7 -105 -6 c-94 -5 -87 -5 70
-7 96 -1 182 -7 190 -12 10 -6 -36 -10 -139 -10 -85 0 -152 -2 -149 -5 3 -3
54 -7 114 -9 203 -7 200 -10 -16 -16 -118 -3 -312 -3 -430 0 l-215 5 -2 37 -2
37 82 4 c108 4 409 -2 517 -11z m283 -108 c15 -3 24 -10 21 -16 -7 -11 -867
-1 -894 10 -35 14 118 20 470 16 206 -3 387 -7 403 -10z m-283 -44 c55 -6 59
-7 25 -10 l-40 -3 50 -7 c28 -5 98 -9 157 -9 59 -1 110 -5 113 -11 4 -6 -21
-10 -67 -10 -40 0 -246 -3 -457 -7 -291 -5 -382 -3 -377 5 4 7 26 12 49 13 33
0 38 2 22 9 -11 5 -32 9 -47 9 -18 1 -28 6 -28 16 0 13 36 15 268 14 147 -1
296 -5 332 -9z m212 -90 c-45 -4 -85 -10 -88 -13 -3 -3 30 -8 73 -12 43 -3 89
-7 103 -9 14 -2 -177 -4 -425 -4 -247 -1 -456 2 -464 7 -8 5 -11 16 -8 25 6
14 52 16 449 15 262 -1 409 -5 360 -9z m63 -69 c24 -5 -148 -9 -418 -10 -303
-1 -456 2 -452 9 8 12 811 13 870 1z m30 -41 c3 -6 -105 -11 -287 -15 -597
-11 -611 -11 -615 2 -5 15 78 18 564 21 203 1 334 -2 338 -8z m-267 -51 c-20
-11 -596 -26 -622 -16 -10 4 -14 11 -11 17 4 6 122 10 328 10 220 -1 317 -4
305 -11z m-128 -86 c2 -2 -109 -3 -248 -2 -160 1 -252 5 -252 12 0 9 489 1
500 -10z m415 -22 c49 -11 -308 -11 -650 -2 -223 7 -210 7 185 9 234 0 443 -3
465 -7z m-89 -33 c8 -9 -280 -18 -553 -18 -172 0 -273 4 -273 10 0 15 811 22
826 8z m118 -39 c10 -9 -313 -19 -646 -19 -190 0 -308 4 -308 10 0 5 37 10 83
12 153 6 865 3 871 -3z m-449 -61 c248 -1 412 -4 365 -7 -54 -4 -76 -9 -60
-13 14 -3 -32 -5 -102 -5 -69 1 -121 -1 -115 -5 7 -4 -125 -8 -292 -8 -167 0
-302 2 -300 4 2 2 71 6 152 8 82 1 151 6 154 11 2 4 -64 7 -146 7 -105 0 -151
3 -151 11 0 7 9 9 23 5 12 -3 225 -7 472 -8z m25 -89 c248 -1 399 -5 375 -10
-22 -4 -234 -8 -472 -8 -395 -1 -432 0 -426 15 5 13 16 15 57 10 28 -3 238 -6
466 -7z m-80 -60 c-131 -11 -440 -11 -440 1 0 6 93 9 263 8 193 -1 240 -3 177
-9z m300 -39 c-38 -12 -750 -12 -750 0 0 7 135 10 388 9 213 -1 376 -5 362 -9z
m-427 -47 c-56 -2 -151 -2 -210 0 -59 1 -13 3 102 3 116 0 164 -2 108 -3z m33
-23 c5 -5 50 -11 99 -13 50 -1 -20 -3 -155 -3 -197 0 -216 1 -95 5 l150 6
-175 5 -175 6 170 2 c99 1 175 -2 181 -8z m57 3 c-7 -2 -19 -2 -25 0 -7 3 -2
5 12 5 14 0 19 -2 13 -5z m-33 -74 c19 -3 -57 -6 -170 -6 -121 0 -187 3 -160
7 54 9 281 8 330 -1z m-75 -39 c-12 -5 84 -10 235 -12 223 -3 305 -9 318 -23
2 -2 -85 -4 -195 -5 -109 0 -250 -5 -313 -10 -63 -5 -168 -10 -233 -10 l-118
0 3 28 c3 25 7 27 63 33 97 9 263 9 240 -1z m235 -110 c-96 -3 -144 -7 -106
-8 38 -1 67 -4 65 -6 -2 -2 -113 -7 -246 -11 -243 -7 -243 -7 -243 14 0 21 0
21 353 19 287 -2 320 -3 177 -8z m205 -39 c-14 -14 -510 -27 -600 -15 -57 7
-19 10 205 14 151 3 304 6 340 8 45 2 62 0 55 -7z m-105 -51 c-37 -12 -618
-12 -625 0 -8 12 114 16 410 11 136 -2 229 -7 215 -11z m-427 -47 c-7 -2 -19
-2 -25 0 -7 3 -2 5 12 5 14 0 19 -2 13 -5z"/>
<path d="M1568 1393 c7 -3 16 -2 19 1 4 3 -2 6 -13 5 -11 0 -14 -3 -6 -6z"/>
<path d="M1605 1389 c4 -5 18 -9 32 -9 32 0 23 12 -12 16 -14 1 -23 -2 -20 -7z"/>
<path d="M1678 1383 c7 -3 16 -2 19 1 4 3 -2 6 -13 5 -11 0 -14 -3 -6 -6z"/>
</g>
</svg>
